<svg width="1em" height="1em" viewBox="0 0 905.0 1023.7" xmlns="http://www.w3.org/2000/svg"><title>Claude Markdown Translator</title><path fill="#d97757" d="M478.1 242.6 L478.1 152.4 C478.1 108.4 480.1 79.7 485.2 48.0 L403.3 48.0 C408.4 79.7 410.5 104.3 410.5 154.5 L410.5 242.6 L125.8 242.6 C93.1 242.6 73.6 241.5 49.0 238.5 C52.1 265.1 54.1 287.6 54.1 319.4 L54.1 598.9 C54.1 631.7 52.1 660.4 48.0 690.0 L121.7 690.0 L121.7 620.4 L410.5 620.4 L410.5 859.0 C410.5 914.3 408.4 940.9 403.3 975.7 L485.2 975.7 C479.1 943.0 478.1 917.4 478.1 859.0 L478.1 620.4 L783.2 620.4 L783.2 690.0 L857.0 690.0 C852.9 659.3 850.8 632.7 850.8 598.9 L850.8 319.4 C850.8 286.6 851.8 265.1 855.9 238.5 C832.4 241.5 812.9 242.6 778.1 242.6 Z M478.1 304.0 L783.2 304.0 L783.2 559.0 L478.1 559.0 Z M410.5 559.0 L121.7 559.0 L121.7 304.0 L410.5 304.0 Z"/></svg>
